<svg width="1200" height="630" viewBox="0 0 1200 630" xmlns="http://www.w3.org/2000/svg">
  <defs>
    <linearGradient id="og-bg" x1="0" y1="0" x2="1" y2="1">
      <stop offset="0%" stop-color="#e23b2e"/>
      <stop offset="55%" stop-color="#d52b1e"/>
      <stop offset="100%" stop-color="#b81f14"/>
    </linearGradient>
    <linearGradient id="og-sheet" x1="0" y1="0" x2="0" y2="1">
      <stop offset="0%" stop-color="#ffffff"/>
      <stop offset="100%" stop-color="#fdeceb"/>
    </linearGradient>
  </defs>
  <rect width="1200" height="630" fill="url(#og-bg)"/>
  <circle cx="1050" cy="120" r="220" fill="#ffffff" opacity="0.06"/>
  <circle cx="120" cy="560" r="180" fill="#ffffff" opacity="0.05"/>

  <!-- Brand mark -->
  <g transform="translate(96 150) scale(1.6)">
    <rect width="64" height="64" rx="16" fill="#ffffff" opacity="0.16"/>
    <path d="M17 13.5A2.5 2.5 0 0 1 19.5 11h18.2L47 20.3V48.5A2.5 2.5 0 0 1 44.5 51h-25A2.5 2.5 0 0 1 17 48.5v-35Z" fill="url(#og-sheet)"/>
    <path d="M37.7 11 47 20.3h-6.8A2.5 2.5 0 0 1 37.7 17.8V11Z" fill="#f3b6b0"/>
    <rect x="22.5" y="24" width="15" height="2.4" rx="1.2" fill="#d8a7a2"/>
    <rect x="22.5" y="29.4" width="10" height="2.4" rx="1.2" fill="#e6c3bf"/>
    <path d="M31.4 36.2h2.2v2.6h2.6v2.2h-2.6v2.6h-2.2v-2.6h-2.6v-2.2h2.6v-2.6Z" fill="#d52b1e"/>
  </g>

  <text x="96" y="330" font-family="Inter, 'Segoe UI', system-ui, -apple-system, sans-serif" font-size="96" font-weight="700" letter-spacing="-2" fill="#ffffff">flinkli</text>
  <text x="96" y="400" font-family="Inter, 'Segoe UI', system-ui, -apple-system, sans-serif" font-size="38" font-weight="500" fill="#ffe4e1">QR-Rechnung für Schweizer Freelancer</text>
  <text x="96" y="452" font-family="Inter, 'Segoe UI', system-ui, -apple-system, sans-serif" font-size="28" font-weight="400" fill="#ffd0cb">Rechnungen in Sekunden. Swiss Payment Standards 2026.</text>
</svg>
